:SAMPLES-PER-SECOND 24
:FULLY-SPECIFIED
:DEGREES
283
root  14.3944 35.3301 6.44603 -12.0215 71.8291 -19.4259
RightUpLeg  12.9932 -8.01564 -17.6815
RightLeg  9.97978 11.7938 2.16512
RightFoot  -21.6723 1.53088 18.4219
RightToes  -1.46215e-006 3.27826e-006 1.63871e-007
Spine  3.91738 -4.84579 -16.1969
Spine1  5.44472 -11.351 24.34
HEad  -21.3332 31.8242 -15.5255
LeftShoulder1  0.60056 -0.673372 -6.74019
LeftArm  -19.3026 -59.3135 -8.08557
LeftForeArm  22.8847 -29.8428 -6.9472
LeftHand  -0.563646 -0.525933 11.2447
RightShoulder  3.2558 5.62686 29.7462
RightArm  17.6986 -40.1424 16.2576
RightForeArm  122.394 45.8186 166.704
RightHand  0.00765181 -5.43786 -26.5874
LeftUpLeg  -43.6215 7.97201 13.0689
LeftLeg  45.5094 -3.10142 -2.95245
LeftFoot  -5.31033 0.508745 -9.03531
LeftToes  1.24762e-006 1.46925e-008 1.29056e-009
284
root  14.6729 35.2201 6.41668 -13.1206 74.7567 -21.4427
RightUpLeg  16.2026 -8.19208 -17.3114
RightLeg  4.7578 6.47584 1.32768
RightFoot  -20.8806 1.54204 20.0037
RightToes  -1.46215e-006 3.27826e-006 1.63871e-007
Spine  3.95078 -3.29995 -15.144
Spine1  2.92655 -8.8079 23.2115
HEad  -18.2801 27.8382 -12.7781
LeftShoulder1  0.903933 -1.53545 -10.685
LeftArm  -16.3506 -52.5836 -18.0337
LeftForeArm  27.833 -55.4636 -14.0087
LeftHand  -0.419208 1.73144 13.2057
RightShoulder  3.03379 5.28552 28.5789
RightArm  14.7285 -30.9579 22.4943
RightForeArm  136.717 43.9411 168.146
RightHand  -0.117363 -4.84483 -23.4561
LeftUpLeg  -45.4409 5.50237 12.2649
LeftLeg  46.1374 -3.02646 -2.94241
LeftFoot  -5.11075 0.47018 -8.06787
LeftToes  1.24762e-006 1.46925e-008 1.29056e-009
285
root  14.8506 35.1862 6.46043 -16.0044 78.1685 -25.098
RightUpLeg  18.7917 -7.5717 -16.5199
RightLeg  0.941333 2.92115 1.23815
RightFoot  -19.9951 1.5102 21.5268
RightToes  -1.46215e-006 3.27826e-006 1.63871e-007
Spine  4.62564 -0.528634 -12.5791
Spine1  -0.608342 -4.68661 20.4669
HEad  -14.8008 19.8287 -9.36185
LeftShoulder1  1.4732 -2.5968 -17.5036
LeftArm  -9.30653 -43.6267 -28.595
LeftForeArm  43.3105 -75.1089 -42.3183
LeftHand  -0.211213 3.0083 9.56828
RightShoulder  2.83853 5.00893 27.3715
RightArm  11.5699 -18.9072 29.2509
RightForeArm  154.284 44.7877 168.875
RightHand  -0.312112 -3.49638 -18.4382
LeftUpLeg  -47.0182 4.61474 10.9155
LeftLeg  46.1007 -4.1468 -4.17842
LeftFoot  -4.42851 0.476597 -7.44396
LeftToes  1.24762e-006 1.46925e-008 1.29056e-009
286
root  14.9255 35.189 6.56174 -19.1013 81.1782 -28.5032
RightUpLeg  20.5757 -6.79474 -15.3075
RightLeg  -1.17261 -1.74588 0.886428
RightFoot  -19.1149 1.35485 21.6213
RightToes  -1.46215e-006 3.27826e-006 1.63871e-007
Spine  4.91145 3.79678 -5.87435
Spine1  -1.98277 1.71972 10.949
HEad  -12.4922 6.25033 -4.76757
LeftShoulder1  2.03343 -3.44168 -23.013
LeftArm  2.51104 -33.0037 -38.5194
LeftForeArm  89.4412 -79.0441 -104.773
LeftHand  -0.110656 2.91792 4.87487
RightShoulder  2.47331 4.60032 24.4067
RightArm  3.86922 -3.83688 34.621
RightForeArm  167.273 50.2857 167.711
RightHand  -0.0702635 -4.9727 -15.6217
LeftUpLeg  -47.7923 4.87056 9.09123
LeftLeg  45.5865 -5.78967 -5.87803
LeftFoot  -3.69826 0.469828 -6.70014
LeftToes  1.24762e-006 1.46925e-008 1.29056e-009
287
root  14.8989 35.1638 6.62424 -22.2422 83.6039 -31.4081
RightUpLeg  21.832 -6.6353 -14.9833
RightLeg  -1.6681 -4.48756 0.954871
RightFoot  -19.1943 1.36125 21.5114
RightToes  -1.46215e-006 3.27826e-006 1.63871e-007
Spine  5.17985 7.92046 5.8003
Spine1  0.641664 9.19717 -5.83321
HEad  -13.2817 -8.37024 1.43926
LeftShoulder1  2.39758 -4.02894 -25.6817
LeftArm  12.8709 -20.7269 -42.6832
LeftForeArm  87.6168 -76.9392 -119.294
LeftHand  -0.0256523 0.107506 0.699824
RightShoulder  1.97595 4.26058 19.0114
RightArm  -3.44215 13.7841 34.6616
RightForeArm  172.011 59.7337 164.741
RightHand  0.228828 -7.70248 -12.8756
LeftUpLeg  -47.9845 4.38944 7.5936
LeftLeg  45.1963 -6.6406 -6.69999
LeftFoot  -2.90831 0.437372 -5.69666
LeftToes  1.24762e-006 1.46925e-008 1.29056e-009
288
root  14.8057 35.1184 6.63375 -26.1327 84.9801 -34.8136
RightUpLeg  22.4584 -7.12265 -15.6194
RightLeg  -0.952961 -4.00453 1.44018
RightFoot  -20.0083 1.53321 21.7943
RightToes  -1.46215e-006 3.27826e-006 1.63871e-007
Spine  6.42569 10.0051 16.1303
Spine1  3.3087 14.8689 -19.4992
HEad  -15.3037 -17.9633 6.1188
LeftShoulder1  2.60836 -4.31101 -27.2887
LeftArm  17.9353 -4.99128 -37.6094
LeftForeArm  78.0679 -75.7184 -123.808
LeftHand  0.247482 -0.828084 -4.5631
RightShoulder  1.47482 4.01173 12.6245
RightArm  -9.2034 35.2908 29.7735
RightForeArm  111.478 80.5562 96.2212
RightHand  0.11204 -6.58746 -12.8756
LeftUpLeg  -47.9646 3.70401 6.81893
LeftLeg  45.1124 -6.62008 -6.65799
LeftFoot  -2.23677 0.422896 -5.1417
LeftToes  1.24762e-006 1.46925e-008 1.29056e-009
289
root  14.7359 35.1358 6.72226 -23.5007 85.2907 -31.7687
RightUpLeg  22.3705 -7.47554 -16.2076
RightLeg  0.163622 -3.4538 1.54267
RightFoot  -20.5234 1.62156 21.7007
RightToes  -1.46215e-006 3.27826e-006 1.63871e-007
Spine  7.93827 11.0188 20.9193
Spine1  3.81749 17.795 -25.5286
HEad  -15.4882 -21.9833 7.27595
LeftShoulder1  2.73044 -4.48598 -28.111
LeftArm  23.0117 11.2785 -30.3701
LeftForeArm  65.1907 -76.1342 -119.077
LeftHand  0.485936 -1.02641 -8.71771
RightShoulder  0.963274 3.17367 6.79857
RightArm  -17.2816 62.2157 21.7455
RightForeArm  27.8491 31.7734 5.20477
RightHand  -0.701729 -0.408792 -16.8109
LeftUpLeg  -47.4738 4.02332 6.2645
LeftLeg  44.6832 -6.76072 -6.70264
LeftFoot  -1.62862 0.427245 -4.91303
LeftToes  1.24762e-006 1.46925e-008 1.29056e-009
290
root  14.7261 35.2227 6.90944 -20.8185 86.0566 -28.7577
RightUpLeg  22.3458 -7.5416 -16.2301
RightLeg  1.22974 -3.99132 1.54172
RightFoot  -20.5095 1.57788 21.2028
RightToes  -1.46215e-006 3.27826e-006 1.63871e-007
Spine  8.61555 12.318 21.9662
Spine1  4.73734 19.8082 -26.6621
HEad  -15.8806 -23.9954 7.65629
LeftShoulder1  2.8412 -4.85204 -27.9386
LeftArm  29.1653 23.2193 -26.7096
LeftForeArm  42.4667 -77.4441 -102.08
LeftHand  0.467689 -0.333376 -9.47013
RightShoulder  0.677601 2.28301 3.75055
RightArm  -69.3299 77.853 -10.3856
RightForeArm  39.0023 -7.62906 5.27748
RightHand  -0.62016 0.588697 -11.4593
LeftUpLeg  -46.7403 3.67074 5.98367
LeftLeg  43.7761 -7.01274 -6.74272
LeftFoot  -1.15372 0.440383 -4.86237
LeftToes  1.24762e-006 1.46925e-008 1.29056e-009
291
root  14.6914 35.2702 7.06914 -59.6406 87.794 -66.7985
RightUpLeg  22.6268 -8.1452 -15.8916
RightLeg  4.08247 -4.39032 2.11212
RightFoot  -20.6668 1.58854 20.994
RightToes  -1.46215e-006 3.27826e-006 1.63871e-007
Spine  8.30698 12.8481 21.6062
Spine1  6.88153 20.414 -24.9874
HEad  -17.594 -24.7859 8.11543
LeftShoulder1  2.93293 -5.20602 -27.5997
LeftArm  32.8251 29.2531 -26.2381
LeftForeArm  26.1893 -77.6803 -88.3647
LeftHand  0.361604 0.740821 -9.22941
RightShoulder  0.619405 1.83128 3.62012
RightArm  -96.2967 76.9093 -34.2139
RightForeArm  34.5747 -6.26531 2.69729
RightHand  -0.259983 -0.59432 -6.33052
LeftUpLeg  -46.1376 1.31702 6.34657
LeftLeg  43.1394 -6.93414 -6.51311
LeftFoot  -0.525531 0.498262 -5.22544
LeftToes  1.24762e-006 1.46925e-008 1.29056e-009
292
root  14.5196 35.2428 7.21385 -120.99 87.2691 -126.778
RightUpLeg  22.0357 -13.3207 -17.4824
RightLeg  10.84 0.912632 2.09924
RightFoot  -21.7724 1.8169 21.3082
RightToes  -1.46215e-006 3.27826e-006 1.63871e-007
Spine  8.04216 11.9377 20.6233
Spine1  8.31937 19.0168 -22.3381
HEad  -16.832 -18.4978 4.50657
LeftShoulder1  2.97936 -5.40908 -27.3467
LeftArm  33.6394 30.8204 -26.4141
LeftForeArm  22.887 -77.6407 -84.4237
LeftHand  0.443166 0.265487 -10.1449
RightShoulder  0.563731 1.27453 3.83041
RightArm  -93.5099 76.8812 -36.3153
RightForeArm  31.5015 -6.62144 5.07529
RightHand  -0.280726 -0.472043 -6.61562
LeftUpLeg  -45.3436 -1.03966 6.81707
LeftLeg  42.7755 -7.08589 -6.57663
LeftFoot  0.696122 0.530203 -5.06802
LeftToes  1.24762e-006 1.46925e-008 1.29056e-009
293
root  14.1864 35.1863 7.44344 -133.737 87.0024 -138.222
RightUpLeg  19.2146 -16.2408 -18.8525
RightLeg  20.0329 7.05433 2.43233
RightFoot  -23.4345 2.09812 21.1088
RightToes  -1.46215e-006 3.27826e-006 1.63871e-007
Spine  8.02786 10.9092 19.1944
Spine1  9.22803 17.4727 -20.3212
HEad  -15.621 -0.0889316 -5.0596
LeftShoulder1  2.99109 -5.70254 -26.38
LeftArm  34.1948 29.4248 -26.5268
LeftForeArm  19.4217 -77.4944 -78.4392
LeftHand  0.623078 -1.51849 -10.3565
RightShoulder  0.487168 0.783644 3.33632
RightArm  -109.576 79.2283 -50.7658
RightForeArm  35.6442 -6.48234 4.62556
RightHand  -0.270507 -0.942914 -6.99254
LeftUpLeg  -44.4859 -1.56121 6.89722
LeftLeg  42.3608 -7.27028 -6.655
LeftFoot  1.56856 0.513837 -4.6241
LeftToes  1.24762e-006 1.46925e-008 1.29056e-009
